<svg fill="currentColor" viewBox="0 0 24 24">
    <path d="M23.249 13.015A3 3 0 0 0 21 12H2V4.482c0-.841.38-1.673 1.093-2.12a2.328 2.328 0 0 1 3.107.571l.259.345-.483 2.771a1.354 1.354 0 0 0 2.146 1.315l3.606-2.704c.567-.425.71-1.217.327-1.814l-.013-.021a1.355 1.355 0 0 0-1.079-.622l-2.906-.129-.174-.232C7.225.965 6.29.3 5.214.087A4.34 4.34 0 0 0 0 4.333l.006 7.923c0 .576.037 1.145.108 1.717l.237 1.9a8.12 8.12 0 0 0 2.635 5.037l-.457 1.85a1 1 0 1 0 1.941.48l.277-1.121A8.093 8.093 0 0 0 8.423 23h7.417a8.09 8.09 0 0 0 3.44-.765l.249 1.005a1 1 0 0 0 1.941-.48l-.41-1.66a8.124 8.124 0 0 0 2.854-5.226l.062-.501a3 3 0 0 0-.728-2.357Zm-1.257 2.109-.062.501A6.146 6.146 0 0 1 15.841 21H8.424a6.145 6.145 0 0 1-6.088-5.375L2.133 14H21c.291 0 .558.12.75.338a.99.99 0 0 1 .242.786Z"></path>
</svg>