<svg fill="currentColor" viewBox="0 0 24 24">
    <path d="M24 1v6a5.01 5.01 0 0 1-4 4.899V23a1 1 0 0 1-2 0V11.899A5.009 5.009 0 0 1 14 7V1a1 1 0 0 1 2 0v6c0 1.302.839 2.402 2 2.816V1a1 1 0 0 1 2 0v8.816A2.996 2.996 0 0 0 22 7V1a1 1 0 0 1 2 0Zm-9.272 20.624c-.884.25-1.801.376-2.728.376-5.514 0-10-4.486-10-10 0-5.21 3.908-9.492 9.09-9.959a1 1 0 0 0-.18-1.992C4.69.61 0 5.748 0 12c0 6.617 5.383 12 12 12 1.11 0 2.211-.152 3.272-.452a1 1 0 0 0-.544-1.924Zm-.157-4.201A6.006 6.006 0 0 1 6 12c0-2.967 2.21-5.52 5.142-5.939a.998.998 0 0 0 .848-1.131 1.003 1.003 0 0 0-1.131-.848c-3.91.559-6.858 3.964-6.858 7.919 0 4.411 3.589 8 8 8 1.2 0 2.354-.259 3.429-.771a1 1 0 0 0-.859-1.807Z"></path>
</svg>