<svg viewBox="0 0 24 24" fill="currentColor">
    <path d="M12.292 14.85a.472.472 0 0 0-.719.108c-.846 1.431-.652 3.481-1.41 3.481-.359 0-.303-.62-.472-1.004a.396.396 0 0 0-.671-.082c-.716.884-1.404 2.443-.77 3.965.678 1.629 2.209 2.779 3.971 2.676A4.018 4.018 0 0 0 16 19.984c0-2.112-2.342-3.914-3.708-5.133Zm.866 7.592a1.545 1.545 0 0 1-2.351 0c-.536-.625-.432-1.58.15-2.162l.682-.682c.19-.19.497-.19.687 0l.682.682c.582.582.686 1.538.15 2.162ZM23 22V5.238l.842-1.674.077-.207a2.685 2.685 0 0 0-.492-2.318A2.685 2.685 0 0 0 21.298 0H2.702C1.865 0 1.088.379.573 1.039a2.684 2.684 0 0 0-.491 2.318L1 5.222V22a1 1 0 0 0 0 2h5a1 1 0 0 0 1-1v-8.6c0-1.246.772-2.373 1.923-2.803 2.112-.792 4.042-.792 6.154 0A2.997 2.997 0 0 1 17 14.4V23a1 1 0 0 0 1 1h5a1 1 0 0 0 0-2ZM2.149 2.27A.69.69 0 0 1 2.702 2h18.596a.69.69 0 0 1 .553.27c.07.091.175.271.144.515L21.384 4H2.617l-.611-1.215a.695.695 0 0 1 .144-.515Zm13.63 7.454c-2.563-.96-4.995-.96-7.559 0-1.926.722-3.221 2.601-3.221 4.676V22h-2V6h18v16h-2v-7.6c0-2.075-1.294-3.954-3.221-4.676Z" class=""></path>
</svg>