<svg viewBox="0 0 20 20" fill="currentColor">
    <path d="M18.3333 4.77001V1.66668C18.3333 1.44566 18.2455 1.2337 18.0893 1.07742C17.933 0.921139 17.721 0.833342 17.5 0.833342C17.279 0.833342 17.067 0.921139 16.9107 1.07742C16.7545 1.2337 16.6667 1.44566 16.6667 1.66668V3.63834L12.3308 0.712509C11.6432 0.245695 10.8312 -0.00387573 10 -0.00387573C9.16885 -0.00387573 8.35684 0.245695 7.66917 0.712509L1.83583 4.64918C1.27024 5.03044 0.807006 5.54486 0.486886 6.14717C0.166765 6.74949 -0.000432821 7.42124 -1.15937e-07 8.10334V15.8333C-1.15937e-07 18.1308 1.86917 20 4.16667 20H6.66667C6.88768 20 7.09964 19.9122 7.25592 19.7559C7.4122 19.5997 7.5 19.3877 7.5 19.1667V12.5C7.5 12.0408 7.87333 11.6667 8.33333 11.6667H11.6667C12.1267 11.6667 12.5 12.0408 12.5 12.5V19.1667C12.5 19.3877 12.5878 19.5997 12.7441 19.7559C12.9004 19.9122 13.1123 20 13.3333 20H15.8333C18.1308 20 20 18.1308 20 15.8333V8.10334C20.0003 7.45643 19.8499 6.81835 19.5606 6.23973C19.2712 5.66112 18.8511 5.1579 18.3333 4.77001ZM18.3333 15.8333C18.3333 17.2117 17.2117 18.3333 15.8333 18.3333H14.1667V12.5C14.1667 11.1217 13.045 10 11.6667 10H8.33333C6.955 10 5.83333 11.1217 5.83333 12.5V18.3333H4.16667C2.78833 18.3333 1.66667 17.2117 1.66667 15.8333V8.10334C1.66667 7.27084 2.07833 6.49584 2.76833 6.03084L8.60167 2.09418C9.01403 1.81401 9.50105 1.66422 9.99958 1.66422C10.4981 1.66422 10.9851 1.81401 11.3975 2.09418L17.2308 6.03084C17.5703 6.25948 17.8484 6.5681 18.0405 6.92951C18.2326 7.29093 18.3329 7.69404 18.3325 8.10334L18.3333 15.8333Z" />
</svg>
    