<svg viewBox="0 0 24 24" fill="currentColor">
    <path d="M23 13h-3v-.5c0-.827-.673-1.5-1.5-1.5h-2c-.827 0-1.5.673-1.5 1.5v.5h-3a1 1 0 1 0 0 2v5c0 2.206 1.794 4 4 4h3c2.206 0 4-1.794 4-4v-5a1 1 0 1 0 0-2Zm-2 7c0 1.103-.897 2-2 2h-3c-1.103 0-2-.897-2-2v-5h7v5ZM9.9 18.323C9.39 19.317 8.322 20 7.088 20H2.912C1.678 20 .61 19.316.1 18.323-.212 17.715.248 17 .956 17h8.089c.708 0 1.168.715.856 1.323Zm0 4C9.39 23.317 8.322 24 7.088 24H2.912C1.678 24 .61 23.316.1 22.323-.212 21.715.248 21 .956 21h8.089c.708 0 1.168.715.856 1.323ZM6.5 13c3.243 0 5.931-2.39 6.415-5.5H20a1 1 0 1 0 0-2h-7.085C12.431 2.39 9.743 0 6.5 0 2.916 0 0 2.916 0 6.5S2.916 13 6.5 13Zm0-11C8.981 2 11 4.019 11 6.5S8.981 11 6.5 11 2 8.981 2 6.5 4.019 2 6.5 2Z"></path>
</svg>