<svg viewBox="0 0 20 20" fill="currentColor">
    <path d="M13.75 15H13.3333V3.75C13.3333 1.6825 11.6508 0 9.58333 0H3.75C2.75578 0.00110286 1.80259 0.396545 1.09957 1.09957C0.396545 1.80259 0.00110286 2.75578 0 3.75L0 17.0833C0.000661266 17.8564 0.307936 18.5976 0.854413 19.1444C1.40089 19.6912 2.14194 19.9989 2.915 20H13.3333C14.7117 20 15.8333 18.8783 15.8333 17.5V17.0833C15.8333 15.9342 14.8992 15 13.75 15ZM4.16667 17.0833C4.16667 17.7725 3.60583 18.3333 2.91667 18.3333C2.2275 18.3333 1.66667 17.7725 1.66667 17.0833V3.75C1.66667 2.60083 2.60083 1.66667 3.75 1.66667H9.58333C10.7325 1.66667 11.6667 2.60083 11.6667 3.75V15H6.25C5.6976 15.0004 5.16795 15.2201 4.77735 15.6107C4.38674 16.0013 4.16711 16.5309 4.16667 17.0833ZM14.1667 17.5C14.1667 17.721 14.0789 17.933 13.9226 18.0893C13.7663 18.2455 13.5543 18.3333 13.3333 18.3333H5.55167C5.7325 17.9542 5.83333 17.53 5.83333 17.0833C5.83333 16.8542 6.02083 16.6667 6.25 16.6667H13.75C13.9792 16.6667 14.1667 16.8542 14.1667 17.0833V17.5ZM17.5 0C16.1217 0 15 1.12167 15 2.5V11.1192C15 12.2325 15.4342 13.2792 16.2208 14.0658L16.9108 14.7558C16.988 14.8335 17.0798 14.8951 17.181 14.9372C17.2821 14.9792 17.3905 15.0009 17.5 15.0009C17.6095 15.0009 17.7179 14.9792 17.819 14.9372C17.9202 14.8951 18.012 14.8335 18.0892 14.7558L18.7792 14.0658C19.1674 13.6798 19.4751 13.2206 19.6847 12.7148C19.8942 12.209 20.0014 11.6666 20 11.1192V2.5C20 1.12167 18.8783 0 17.5 0ZM18.3333 11.1192C18.3333 11.7875 18.0725 12.4158 17.6008 12.8875L17.5 12.9883L17.3992 12.8875C17.1663 12.6558 16.9816 12.3802 16.8559 12.0767C16.7302 11.7731 16.6659 11.4477 16.6667 11.1192V2.5C16.6667 2.27899 16.7545 2.06702 16.9107 1.91074C17.067 1.75446 17.279 1.66667 17.5 1.66667C17.721 1.66667 17.933 1.75446 18.0893 1.91074C18.2455 2.06702 18.3333 2.27899 18.3333 2.5V11.1192ZM2.74417 5.91417C2.58791 5.75791 2.50013 5.54598 2.50013 5.325C2.50013 5.21558 2.52168 5.10723 2.56355 5.00615C2.60542 4.90506 2.6668 4.8132 2.74417 4.73583C2.82154 4.65846 2.91339 4.59709 3.01448 4.55522C3.11557 4.51334 3.22392 4.49179 3.33333 4.49179C3.55431 4.49179 3.76624 4.57958 3.9225 4.73583L4.99583 5.81C5.02333 5.8375 5.08333 5.8375 5.11167 5.81L6.9275 3.99417C7.08376 3.83791 7.29569 3.75013 7.51667 3.75013C7.73765 3.75013 7.94958 3.83791 8.10583 3.99417C8.26209 4.15042 8.34987 4.36235 8.34987 4.58333C8.34987 4.80431 8.26209 5.01624 8.10583 5.1725L6.29 6.98833C5.94917 7.32917 5.50167 7.49917 5.05417 7.49917C4.60667 7.49917 4.15917 7.32917 3.81833 6.98833L2.74417 5.91417ZM6.29 11.9883C5.94917 12.3292 5.50167 12.4992 5.05417 12.4992C4.60667 12.4992 4.15917 12.3292 3.81833 11.9883L2.745 10.9142C2.58874 10.7579 2.50096 10.546 2.50096 10.325C2.50096 10.104 2.58874 9.89209 2.745 9.73583C2.90126 9.57958 3.11319 9.49179 3.33417 9.49179C3.55515 9.49179 3.76708 9.57958 3.92333 9.73583L4.99667 10.81C5.02417 10.8375 5.08417 10.8375 5.1125 10.81L6.92833 8.99417C7.0057 8.9168 7.09756 8.85542 7.19865 8.81355C7.29974 8.77168 7.40808 8.75013 7.5175 8.75013C7.62692 8.75013 7.73527 8.77168 7.83635 8.81355C7.93744 8.85542 8.0293 8.9168 8.10667 8.99417C8.18404 9.07154 8.24541 9.16339 8.28728 9.26448C8.32916 9.36557 8.35071 9.47391 8.35071 9.58333C8.35071 9.69275 8.32916 9.8011 8.28728 9.90219C8.24541 10.0033 8.18404 10.0951 8.10667 10.1725L6.29 11.9883Z" />
</svg>
    