<svg viewBox="0 0 24 24" fill="currentColor">
    <path d="m22.751 17.411-9.108-6.47c2.639-2.166 3.844-3.16 3.175-6.087a4.925 4.925 0 0 0-3.684-3.684c-1.514-.345-3.068 0-4.259.952A4.951 4.951 0 0 0 7 6.013a1 1 0 0 0 2 0c0-.911.409-1.759 1.122-2.328.724-.578 1.635-.779 2.568-.565a2.95 2.95 0 0 1 2.179 2.179c.383 1.678.148 1.927-2.505 4.106l-.968.799-10.174 7.227A3.12 3.12 0 0 0 0 19.898 3.106 3.106 0 0 0 3.102 23h17.796A3.106 3.106 0 0 0 24 19.898c0-.961-.457-1.884-1.249-2.487ZM20.898 21H3.102a1.103 1.103 0 0 1-.695-1.958L12 12.227l9.565 6.795A1.103 1.103 0 0 1 20.898 21Z"></path>
</svg>